HIERARCHY
ROOT Hips
{
	OFFSET 0.000000 0.000000 0.000000 
	CHANNELS 6 Xposition Yposition Zposition Zrotation Yrotation Xrotation
	JOINT LeftUpLeg
	{
		OFFSET 1.363060 -1.794630 0.839290 
		CHANNELS 3 Zrotation Yrotation Xrotation
		JOINT LeftLeg
		{
			OFFSET 2.448110 -6.726130 0.000000 
			CHANNELS 3 Zrotation Yrotation Xrotation
			JOINT LeftFoot
			{
				OFFSET 2.562200 -7.039590 0.000000 
				CHANNELS 3 Zrotation Yrotation Xrotation
				JOINT LeftToeBase
				{
					OFFSET 0.157640 -0.433110 2.322550 
					CHANNELS 3 Zrotation Yrotation Xrotation
					End Site
					{
						OFFSET 0.000000 0.000000 0.000000 
					}
				}
			}
		}
	}
	JOINT RightUpLeg
	{
		OFFSET -1.305520 -1.794630 0.839290 
		CHANNELS 3 Zrotation Yrotation Xrotation
		JOINT RightLeg
		{
			OFFSET -2.542530 -6.985550 0.000000 
			CHANNELS 3 Zrotation Yrotation Xrotation
			JOINT RightFoot
			{
				OFFSET -2.568260 -7.056230 0.000000 
				CHANNELS 3 Zrotation Yrotation Xrotation
				JOINT RightToeBase
				{
					OFFSET -0.164730 -0.452590 2.363150 
					CHANNELS 3 Zrotation Yrotation Xrotation
					End Site
					{
						OFFSET 0.000000 0.000000 0.000000 
					}
				}
			}
		}
	}
	JOINT Spine
	{
		OFFSET 0.028270 2.035590 -0.193380 
		CHANNELS 3 Zrotation Yrotation Xrotation
		JOINT Spine1
		{
			OFFSET 0.056720 2.048850 -0.042750 
			CHANNELS 3 Zrotation Yrotation Xrotation
			JOINT Neck1
			{
				OFFSET -0.054170 1.746240 0.172020 
				CHANNELS 3 Zrotation Yrotation Xrotation
				JOINT Head
				{
					OFFSET 0.104070 1.761360 -0.123970 
					CHANNELS 3 Zrotation Yrotation Xrotation
					End Site
					{
						OFFSET 0.000000 0.000000 0.000000 
					}
				}
			}
			JOINT LeftArm
			{
				OFFSET 3.362410 1.200890 -0.311210 
				CHANNELS 3 Zrotation Yrotation Xrotation
				JOINT LeftForeArm
				{
					OFFSET 4.983000 -0.000000 -0.000000 
					CHANNELS 3 Zrotation Yrotation Xrotation
					JOINT LeftHand
					{
						OFFSET 3.483560 -0.000000 -0.000000 
						CHANNELS 3 Zrotation Yrotation Xrotation
						JOINT LeftHandIndex1
						{
							OFFSET 0.715260 -0.000000 -0.000000 
							CHANNELS 3 Zrotation Yrotation Xrotation
							End Site
							{
								OFFSET 0.000000 0.000000 0.000000 
							}
						}
					}
				}
			}
			JOINT RightArm
			{
				OFFSET -3.136600 1.374050 -0.404650 
				CHANNELS 3 Zrotation Yrotation Xrotation
				JOINT RightForeArm
				{
					OFFSET -5.241900 -0.000000 -0.000000 
					CHANNELS 3 Zrotation Yrotation Xrotation
					JOINT RightHand
					{
						OFFSET -3.444170 -0.000000 -0.000000 
						CHANNELS 3 Zrotation Yrotation Xrotation
						JOINT RightHandIndex1
						{
							OFFSET -0.622530 -0.000000 -0.000000 
							CHANNELS 3 Zrotation Yrotation Xrotation
							End Site
							{
								OFFSET 0.000000 0.000000 0.000000 
							}
						}
					}
				}
			}
		}
	}
}
MOTION
Frames: 6
Frame Time: 0.041667
-1.151092 18.819331 19.776436 179.974798 -3.409561 -148.274154 -59.834603 -29.162029 -16.738611 6.224756 3.986465 11.814676 -2.223046 -18.859503 -43.246028 1.210800 -6.980600 -19.657900 65.332756 30.735044 -16.460271 -5.924925 -4.376473 12.732313 -0.715857 14.163833 -46.443031 -0.394100 4.030700 -11.163100 1.964491 -0.580325 -9.235684 -2.204997 -1.610877 21.755578 22.798037 -7.676740 18.655408 2.407000 -1.970900 4.032500 -111.900605 -9.241950 17.700888 17.782046 -15.022220 -1.577251 0.815431 -0.208647 6.598976 -7.125000 0.000000 0.000000 106.643572 -0.560340 2.154076 -24.769794 32.558006 -4.798203 0.093641 -4.459726 -4.313289 7.125000 0.000000 0.000000 
-1.152145 18.822778 19.777968 -179.989526 -3.374543 -148.474558 -59.909468 -28.969775 -16.578690 6.229822 3.979846 11.847539 -2.267717 -18.947707 -43.202866 1.343700 -7.338900 -20.723500 65.408240 30.592097 -16.302223 -5.926237 -4.368690 12.759190 -0.703479 14.215301 -46.423667 -0.395100 4.035800 -11.177500 2.166078 -0.576658 -8.759495 -2.233663 -1.596836 21.598274 22.379261 -7.669488 18.366936 2.336600 -2.023100 4.012300 -111.924473 -9.264762 17.722845 17.775277 -15.033225 -1.576791 0.817397 -0.208401 6.461104 -7.125000 0.000000 0.000000 106.599675 -0.494403 2.162407 -24.706377 32.499249 -4.771356 0.097036 -4.461188 -4.259829 7.125000 0.000000 0.000000 
-1.151858 18.823735 19.778446 179.917850 -3.339423 -147.888922 -59.929402 -28.905157 -16.784462 6.240803 3.956643 11.785382 -2.293314 -18.976504 -43.146971 1.247500 -7.081600 -19.957200 65.416225 30.540239 -16.514231 -5.933924 -4.361956 12.740894 -0.772732 14.118790 -46.530014 -0.482400 4.453700 -12.356700 1.065930 -0.542002 -13.460052 -1.772458 -1.714980 23.493958 21.885544 -7.693344 18.191931 2.266700 -2.090900 3.994900 -112.085833 -9.039814 17.736850 17.774175 -14.947756 -1.584191 0.832944 -0.192553 6.423994 -7.125000 0.000000 0.000000 106.735569 -0.688024 2.031056 -24.722374 32.461717 -4.791836 0.107652 -4.485648 -4.235553 7.125000 0.000000 0.000000 
-1.149656 18.822012 19.775861 -179.995208 -3.404137 -148.614628 -59.951754 -28.919498 -16.435411 6.234842 3.935305 11.740952 -2.294806 -19.015647 -43.178818 1.077300 -6.597600 -18.528500 65.470195 30.539060 -16.139379 -5.924277 -4.363964 12.675616 -0.956488 13.795662 -46.728035 -0.579200 4.873200 -13.547200 2.266966 -0.579872 -8.180914 -2.135658 -1.599936 21.496693 21.583303 -7.733500 17.773187 2.191300 -2.162200 3.971700 -111.971178 -9.329444 17.782560 17.750567 -15.005315 -1.567888 0.801539 -0.213159 6.474717 -7.125000 0.000000 0.000000 106.557190 -0.409877 2.106189 -24.675251 32.500304 -4.757059 0.084124 -4.469198 -4.217326 7.125000 0.000000 0.000000 
-1.149081 18.819426 19.773850 179.996609 -3.450661 -148.435571 -59.876846 -29.072957 -16.630479 6.226285 3.962226 11.778138 -2.276121 -18.978361 -43.238150 1.131200 -6.755200 -18.992200 65.369228 30.767523 -16.336271 -5.917508 -4.387734 12.687181 -0.923383 13.782517 -46.650912 -0.505700 4.558500 -12.653400 2.282690 -0.595838 -8.385541 -2.031395 -1.627947 21.723876 20.634426 -7.479463 16.550620 2.280700 -2.245400 4.276600 -111.977151 -9.381135 17.650996 17.743762 -15.005609 -1.562447 0.789604 -0.219933 6.691717 -7.125000 0.000000 0.000000 106.538005 -0.387461 2.180535 -24.638282 32.457009 -4.735882 0.072780 -4.481529 -4.275794 7.125000 0.000000 0.000000 
-1.150518 18.819043 19.774042 -179.963720 -3.401537 -148.329632 -59.844683 -29.088127 -16.760285 6.222268 3.996310 11.842166 -2.243172 -18.905328 -43.271907 1.230400 -7.034800 -19.818400 65.322382 30.782906 -16.481425 -5.919021 -4.389037 12.737414 -0.734582 14.110837 -46.459640 -0.420300 4.160900 -11.529700 2.515808 -0.566565 -8.638690 -2.064019 -1.629703 21.826387 20.175053 -7.494512 16.253679 2.196700 -2.307600 4.241700 -112.022306 -9.400277 17.471936 17.708115 -14.959978 -1.551170 0.786630 -0.223551 6.825496 -7.125000 0.000000 0.000000 106.501801 -0.432186 2.213164 -24.646359 32.454542 -4.733861 0.064557 -4.489041 -4.296516 7.125000 0.000000 0.000000 
